<svg width="16" height="16" viewBox="0 0 16 16" fill="none" xmlns="http://www.w3.org/2000/svg">
<path d="M2.47988 3.92L4.99988 5.6L7.51148 2.084C7.56698 2.00622 7.64026 1.94282 7.72521 1.89908C7.81016 1.85534 7.90433 1.83252 7.99988 1.83252C8.09543 1.83252 8.1896 1.85534 8.27455 1.89908C8.3595 1.94282 8.43278 2.00622 8.48828 2.084L10.9999 5.6L13.5199 3.92C13.6153 3.85655 13.7268 3.82172 13.8413 3.81964C13.9559 3.81756 14.0686 3.84831 14.1662 3.90825C14.2638 3.9682 14.3422 4.05483 14.3922 4.15792C14.4421 4.26101 14.4615 4.37624 14.4481 4.49L13.4623 12.8702C13.4451 13.0162 13.3749 13.1507 13.2651 13.2484C13.1553 13.346 13.0134 13.4 12.8665 13.4H3.13328C2.98632 13.4 2.84448 13.346 2.73466 13.2484C2.62484 13.1507 2.55468 13.0162 2.53748 12.8702L1.55168 4.4894C1.53836 4.37569 1.55785 4.26054 1.60785 4.15755C1.65786 4.05456 1.73628 3.96802 1.83387 3.90816C1.93146 3.84829 2.04414 3.8176 2.15861 3.81969C2.27307 3.82179 2.38455 3.8566 2.47988 3.92ZM7.99988 9.8C8.31814 9.8 8.62337 9.67357 8.84841 9.44853C9.07345 9.22348 9.19988 8.91826 9.19988 8.6C9.19988 8.28174 9.07345 7.97652 8.84841 7.75147C8.62337 7.52643 8.31814 7.4 7.99988 7.4C7.68162 7.4 7.3764 7.52643 7.15135 7.75147C6.92631 7.97652 6.79988 8.28174 6.79988 8.6C6.79988 8.91826 6.92631 9.22348 7.15135 9.44853C7.3764 9.67357 7.68162 9.8 7.99988 9.8Z" fill="#16A34A"/>
</svg>
